<?xml version="1.0" encoding="utf-8"?>
<!-- Generator: Adobe Illustrator 15.0.0, SVG Export Plug-In . SVG Version: 6.00 Build 0)  -->
<!DOCTYPE svg PUBLIC "-//W3C//DTD SVG 1.1//EN" "http://www.w3.org/Graphics/SVG/1.1/DTD/svg11.dtd">
<svg version="1.1" id="Layer_1" xmlns="http://www.w3.org/2000/svg" xmlns:xlink="http://www.w3.org/1999/xlink" x="0px" y="0px"
	 width="171.833px" height="60.167px" viewBox="0 0 171.833 60.167" enable-background="new 0 0 171.833 60.167"
	 xml:space="preserve">
<g>
	<path fill="#FFFFFF" d="M76.454,17.687c0.939,0,1.853,0.444,2.741,1.331c0.679,0.678,1.278,1.55,1.801,2.611l-2.976,1.644
		l0.026-0.469c0-0.766-0.191-1.514-0.574-2.245c-0.453-0.87-1.036-1.306-1.749-1.306c-0.731,0-1.271,0.279-1.619,0.835
		c-0.278,0.453-0.417,1.08-0.417,1.878c0,1.619,0.661,3.29,1.984,5.012c1.218,1.462,2.444,2.915,3.68,4.359
		c1.34,1.758,2.01,3.437,2.01,5.037c0,1.879-0.896,3.262-2.689,4.15c-1.393,0.696-3.14,1.044-5.247,1.044
		c-1.687,0-3.257-0.114-4.71-0.34c-1.452-0.226-2.849-0.626-4.189-1.2l1.41-1.749c0.871,0.244,1.774,0.496,2.714,0.758
		c0.939,0.261,1.801,0.392,2.583,0.392c1.427,0,2.732-0.183,3.915-0.549c1.706-0.521,2.559-1.331,2.559-2.427
		c0-0.487-0.583-1.409-1.749-2.766c-1.566-1.827-2.653-3.271-3.263-4.333c-1.166-2.036-1.748-4.141-1.748-6.316
		c0-1.444,0.548-2.697,1.644-3.758C73.687,18.217,74.975,17.687,76.454,17.687z"/>
	<path fill="#FFFFFF" d="M83.605,27.604c0-2.993,0.478-5.403,1.436-7.23c1.252-2.383,3.236-3.576,5.951-3.576
		c1.722,0,3.105,0.597,4.149,1.789c1.045,1.191,1.566,2.648,1.566,4.371l-2.923,0.261l0.026-0.705c0-1.775-0.287-3.01-0.861-3.705
		c-0.487-0.592-1.209-0.888-2.167-0.888c-1.688,0-2.827,1.148-3.418,3.445c-0.331,1.288-0.497,3.142-0.497,5.56
		c0,2.696,0.265,4.771,0.796,6.224c0.531,1.453,1.284,2.179,2.258,2.179c1.253,0,2.235-0.53,2.949-1.592
		c0.626-0.939,0.94-2.044,0.94-3.314c0-0.243-0.009-0.426-0.026-0.548c0.574,0,1.156-0.043,1.749-0.13
		c0.591-0.087,1-0.148,1.227-0.183c0,2.244-0.557,4.01-1.671,5.298c-1.183,1.357-2.879,2.036-5.088,2.036
		c-1.984,0-3.593-1.096-4.83-3.289C84.126,31.763,83.605,29.761,83.605,27.604z"/>
	<path fill="#FFFFFF" d="M101.821,36.374l-2.922,0.026c0.435-3.341,1-6.376,1.696-9.108c0.8-3.132,1.828-6.029,3.08-8.692
		l4.933-0.469c0.4,3.41,0.792,6.49,1.174,9.238c0.469,3.463,0.94,6.517,1.41,9.162h-3.653l-0.653-6.838l-3.915,0.339L101.821,36.374
		z M104.119,24.498l2.218-0.156l-0.314-4.071l-0.782,0.548L104.119,24.498z"/>
	<path fill="#FFFFFF" d="M124.894,35.043l1.07,4.906l-12.92-0.627c0-1.374,0.027-2.756,0.079-4.148
		c0.157-4.176,0.234-6.5,0.234-6.969c0-1.044-0.112-3.628-0.338-7.751c-0.104-1.897-0.157-3.445-0.157-4.646h5.559
		c-0.574,2.785-1.018,5.107-1.33,6.969c-0.4,2.349-0.728,4.742-0.979,7.176c-0.252,2.437-0.378,4.743-0.378,6.917L124.894,35.043z"
		/>
	<path fill="#FFFFFF" d="M132.412,40.631l-4.122,0.038c0.613-4.711,1.411-8.994,2.392-12.846c1.129-4.417,2.578-8.502,4.342-12.257
		l6.958-0.663c0.565,4.811,1.118,9.153,1.657,13.028c0.662,4.885,1.325,9.192,1.986,12.921h-5.151l-0.921-9.643l-5.52,0.478
		L132.412,40.631z M134.781,26.073l3.906-0.375l-0.35-7.776l-1.104,0.773L134.781,26.073z"/>
	<path fill="#FFFFFF" d="M162.277,42.349l-6.447,0.416c0.102-0.684,0.166-1.314,0.189-1.897c0.024-0.583,0.04-1.275,0.04-2.085
		c0-1.923-0.19-3.693-0.569-5.31c-0.583-2.528-1.492-3.793-2.73-3.793c-0.557,0-1.076,0.179-1.556,0.531l1.402,12.062h-6.104
		c0.278-1.998,0.512-3.932,0.701-5.803c0.188-1.872,0.286-3.667,0.286-5.386c0-1.566-0.065-3.439-0.19-5.614
		c-0.126-2.174-0.248-4.354-0.361-6.541c-0.114-2.187-0.17-4.08-0.17-5.671c1.391-0.176,2.896-0.266,4.512-0.266
		c3.465,0,5.981,0.583,7.55,1.744c1.845,1.367,2.769,3.718,2.769,7.055c0,1.289-0.487,2.561-1.461,3.813
		c-0.972,1.251-2.092,2.003-3.356,2.257c1.314,1.315,2.527,3.578,3.642,6.79C161.354,37.379,161.975,39.946,162.277,42.349z
		 M151.431,16.025l-0.228,10.05h0.531c1.291,0,2.162-0.124,2.617-0.377c0.583-0.33,1.01-1.076,1.289-2.239
		c0.202-0.859,0.304-1.682,0.304-2.466c0-1.466-0.386-2.603-1.155-3.414C154.016,16.771,152.897,16.251,151.431,16.025z"/>
</g>
<g>
	<path fill="#FFFFFF" d="M12.536,2.505C37.753,22,37.729,43.723,15.333,55.994C47.92,38.14,39.733,15.386,12.536,2.505z"/>
</g>
<path fill="#FFFFFF" d="M3.479,12.481c30.489,0,34.912,29.296,3.529,25.281C42.246,36.702,3.22,12.038,3.479,12.481
	C6.08,12.481,3.479,12.481,3.479,12.481z"/>
<path fill="#FFFFFF" d="M43.111,18.267c-3.452-0.877-6.874-1.39-8.777-1.468c4.337,6,6.38,12.729,4.021,19.502
	C71.354,27.626,67.183,23.126,43.111,18.267z M55.091,23.748c-0.939,0-1.7,0.538-1.7,1.201c0,0.408,0.335,0.714,0.776,0.932
	c-0.279,0.093-0.584,0.145-0.905,0.145c-1.259,0-2.279-0.778-2.279-1.734c0-0.959,1.021-1.738,2.279-1.738
	c1.054,0,1.9,0.556,2.166,1.295C55.306,23.828,55.223,23.748,55.091,23.748z"/>
<g>
	<path fill="#FFFFFF" d="M119.669,16.413l8.996-0.512l0.059,2.008c-0.708,0.302-1.529,0.538-2.46,0.708
		c-0.236,0.04-1.667,0.204-4.291,0.492l0.295,3.445l3.327-0.04l0.04,3.13l-3.799-0.098l0.197,4.586l4.94-0.236l0.177,2.086
		l-7.559,0.099L119.669,16.413z"/>
</g>
</svg>
