<?xml version="1.0" encoding="utf-8"?>
<!-- Generator: Adobe Illustrator 15.0.0, SVG Export Plug-In . SVG Version: 6.00 Build 0)  -->
<!DOCTYPE svg PUBLIC "-//W3C//DTD SVG 1.1//EN" "http://www.w3.org/Graphics/SVG/1.1/DTD/svg11.dtd">
<svg version="1.1" id="Layer_1" xmlns="http://www.w3.org/2000/svg" xmlns:xlink="http://www.w3.org/1999/xlink" x="0px" y="0px"
	 width="171.833px" height="53.489px" viewBox="0 2.505 171.833 53.489" enable-background="new 0 2.505 171.833 53.489"
	 xml:space="preserve">
<g>
	<path fill="#FFFFFF" d="M76.454,17.687c2.173,0,3.697,2.227,4.542,3.942c-0.992,0.548-1.984,1.096-2.976,1.644
		c0.168-1.807-2.093-6.094-3.916-3.185c-2.352,3.835,3.092,8.731,5.247,11.25c7.904,10.37-8.426,11.432-14.825,8.69
		c1.14-2.766,3.277-1.03,5.475-0.696c2.509,0.381,9.807-0.481,6.929-4.433c-2.072-2.845-4.575-5.141-5.546-8.651
		C70.319,22.402,71.704,17.687,76.454,17.687C77.393,17.687,74.975,17.687,76.454,17.687z"/>
	<path fill="#FFFFFF" d="M83.605,27.604c0-3.643,0.701-8.541,4.48-10.233c4.232-1.896,8.622,0.989,8.622,5.587
		c-0.975,0.087-1.949,0.174-2.924,0.261c0.186-2.21-0.148-5.298-3.002-5.298c-4.054,0-3.914,6.287-3.914,9.005
		c0,1.937-0.133,8.404,3.053,8.404c1.883,0,3.163-1.395,3.654-3.125c0.813-2.862-0.011-2.146,3.186-2.643
		c0,4.153-2.416,7.334-6.76,7.334C85.539,36.896,83.605,31.277,83.605,27.604C83.605,24.611,83.605,29.761,83.605,27.604z"/>
	<path fill="#FFFFFF" d="M101.821,36.375L98.899,36.4c0.436-3.341,1-6.376,1.696-9.108c0.8-3.132,1.827-6.029,3.079-8.692
		l4.934-0.469c0.4,3.41,0.792,6.49,1.174,9.238c0.469,3.462,0.94,6.517,1.41,9.162h-3.652l-0.653-6.838l-3.915,0.339L101.821,36.375
		z M104.12,24.498l2.217-0.156l-0.313-4.071l-0.782,0.548L104.12,24.498z"/>
	<path fill="#FFFFFF" d="M124.894,35.042c0.356,1.636,0.713,3.271,1.069,4.906c-4.269-0.207-8.536-0.414-12.805-0.621
		c0.48,0.023-0.297-22.158-0.297-23.52c1.853,0,3.706,0,5.559,0c-1.426,6.927-2.687,13.967-2.687,21.063
		C118.788,36.261,121.84,35.652,124.894,35.042L124.894,35.042z"/>
	<path fill="#A3C4FF" d="M132.413,40.63l-4.123,0.039c0.613-4.711,1.412-8.994,2.393-12.846c1.129-4.417,2.578-8.502,4.342-12.257
		l6.958-0.663c0.565,4.811,1.118,9.153,1.657,13.028c0.662,4.885,1.324,9.191,1.986,12.921h-5.151l-0.921-9.644l-5.52,0.479
		L132.413,40.63z M134.781,26.073l3.906-0.375l-0.351-7.776l-1.104,0.773L134.781,26.073z"/>
	<path fill="#A3C4FF" d="M162.277,42.349l-6.446,0.416c0.102-0.684,0.166-1.314,0.188-1.896c0.024-0.584,0.04-1.275,0.04-2.086
		c0-1.923-0.189-3.693-0.569-5.31c-0.583-2.528-1.491-3.793-2.729-3.793c-0.557,0-1.076,0.179-1.557,0.531l1.402,12.062h-6.104
		c0.277-1.998,0.512-3.932,0.701-5.803c0.188-1.872,0.285-3.668,0.285-5.387c0-1.565-0.064-3.438-0.189-5.614
		c-0.127-2.174-0.248-4.354-0.361-6.541c-0.114-2.187-0.17-4.08-0.17-5.671c1.391-0.176,2.896-0.266,4.512-0.266
		c3.465,0,5.98,0.583,7.551,1.744c1.844,1.367,2.769,3.718,2.769,7.055c0,1.289-0.487,2.561-1.461,3.813
		c-0.972,1.251-2.093,2.003-3.356,2.257c1.314,1.315,2.527,3.578,3.643,6.79C161.354,37.378,161.975,39.946,162.277,42.349z
		 M151.431,16.025l-0.228,10.05h0.53c1.291,0,2.162-0.124,2.617-0.377c0.583-0.33,1.01-1.076,1.289-2.239
		c0.202-0.859,0.304-1.682,0.304-2.466c0-1.466-0.386-2.603-1.154-3.414C154.016,16.771,152.897,16.251,151.431,16.025z"/>
</g>
<g>
	<path fill="#FFFFFF" d="M12.536,2.505C37.753,22,37.729,43.723,15.333,55.994C47.92,38.14,39.733,15.386,12.536,2.505z"/>
</g>
<path fill="#FFFFFF" d="M3.479,12.481c30.489,0,34.912,29.296,3.529,25.281C42.246,36.703,3.22,12.038,3.479,12.481
	C6.08,12.481,3.479,12.481,3.479,12.481z"/>
<path fill="#FFFFFF" d="M43.111,18.267c-3.452-0.877-6.874-1.39-8.777-1.468c4.337,6,6.38,12.729,4.021,19.501
	C71.354,27.626,67.183,23.126,43.111,18.267z M55.091,23.748c-0.939,0-1.7,0.538-1.7,1.201c0,0.408,0.335,0.714,0.776,0.932
	c-0.279,0.093-0.584,0.145-0.905,0.145c-1.259,0-2.279-0.778-2.279-1.734c0-0.959,1.021-1.738,2.279-1.738
	c1.054,0,1.9,0.556,2.166,1.295C55.306,23.828,55.223,23.748,55.091,23.748z"/>
<g>
	<path fill="#FFFFFF" d="M119.668,16.413l8.996-0.512l0.06,2.008c-0.708,0.302-1.529,0.538-2.46,0.708
		c-0.236,0.04-1.667,0.204-4.291,0.492l0.295,3.445l3.327-0.04l0.04,3.13l-3.799-0.098l0.197,4.586l4.939-0.236l0.177,2.086
		l-7.56,0.1L119.668,16.413z"/>
</g>
</svg>
